<svg width="281" height="62" viewBox="0 0 281 62" fill="none" xmlns="http://www.w3.org/2000/svg">
<path d="M25.938 5.98049H16.61V32.5785H9.988V5.98049H0.66V0.656489H25.938V5.98049ZM57.2447 0.656489V32.5785H50.6007V18.8285H36.5427V32.5785H29.8987V0.656489H36.5427V14.2085H50.6007V0.656489H57.2447ZM70.5739 5.82649V14.0325H81.2219V19.0265H70.5739V27.4085H84.2579V32.5785H63.9299V0.656489H84.2579V5.82649H70.5739ZM111.891 27.5185C112.947 27.5185 113.812 27.3938 114.487 27.1445C115.176 26.8805 115.726 26.5358 116.137 26.1105C116.548 25.6852 116.834 25.2012 116.995 24.6585C117.156 24.1012 117.237 23.5292 117.237 22.9425C117.237 22.2972 117.142 21.7178 116.951 21.2045C116.76 20.6912 116.452 20.2585 116.027 19.9065C115.602 19.5398 115.044 19.2612 114.355 19.0705C113.68 18.8798 112.844 18.7845 111.847 18.7845H106.237V27.5185H111.891ZM106.237 5.67249V14.2965H110.571C111.495 14.2965 112.316 14.2232 113.035 14.0765C113.754 13.9152 114.355 13.6658 114.839 13.3285C115.323 12.9912 115.69 12.5512 115.939 12.0085C116.203 11.4512 116.335 10.7838 116.335 10.0065C116.335 9.21449 116.225 8.53982 116.005 7.98249C115.8 7.42516 115.477 6.97782 115.037 6.64049C114.597 6.30316 114.04 6.06116 113.365 5.91449C112.69 5.75316 111.891 5.67249 110.967 5.67249H106.237ZM110.967 0.656489C113.108 0.656489 114.934 0.861822 116.445 1.27249C117.97 1.66849 119.21 2.24049 120.163 2.98849C121.131 3.72182 121.835 4.61649 122.275 5.67249C122.715 6.72849 122.935 7.90916 122.935 9.21449C122.935 9.94782 122.825 10.6518 122.605 11.3265C122.4 12.0012 122.07 12.6392 121.615 13.2405C121.175 13.8272 120.603 14.3625 119.899 14.8465C119.195 15.3305 118.359 15.7412 117.391 16.0785C119.562 16.5918 121.168 17.4278 122.209 18.5865C123.25 19.7452 123.771 21.2485 123.771 23.0965C123.771 24.4458 123.507 25.6998 122.979 26.8585C122.466 28.0172 121.71 29.0218 120.713 29.8725C119.716 30.7232 118.484 31.3905 117.017 31.8745C115.565 32.3438 113.893 32.5785 112.001 32.5785H99.637V0.656489H110.967ZM138.801 15.7705C139.871 15.7705 140.795 15.6385 141.573 15.3745C142.35 15.0958 142.988 14.7218 143.487 14.2525C143.985 13.7685 144.352 13.2038 144.587 12.5585C144.821 11.9132 144.939 11.2092 144.939 10.4465C144.939 8.93582 144.433 7.76249 143.421 6.92649C142.423 6.09049 140.898 5.67249 138.845 5.67249H135.413V15.7705H138.801ZM154.267 32.5785H148.305C147.19 32.5785 146.383 32.1532 145.885 31.3025L139.813 21.5125C139.563 21.1312 139.285 20.8525 138.977 20.6765C138.683 20.5005 138.243 20.4125 137.657 20.4125H135.413V32.5785H128.813V0.656489H138.845C141.074 0.656489 142.981 0.891156 144.565 1.36049C146.149 1.81516 147.447 2.45316 148.459 3.27449C149.471 4.09582 150.211 5.07849 150.681 6.22249C151.15 7.35182 151.385 8.59849 151.385 9.96249C151.385 11.0185 151.231 12.0232 150.923 12.9765C150.629 13.9152 150.197 14.7732 149.625 15.5505C149.053 16.3278 148.349 17.0172 147.513 17.6185C146.677 18.2198 145.723 18.7038 144.653 19.0705C145.078 19.3052 145.474 19.5912 145.841 19.9285C146.207 20.2512 146.537 20.6398 146.831 21.0945L154.267 32.5785ZM174.239 20.4565L170.785 10.6885C170.58 10.1752 170.36 9.57382 170.125 8.88449C169.905 8.19516 169.692 7.44716 169.487 6.64049C169.282 7.46182 169.062 8.22449 168.827 8.92849C168.607 9.61782 168.394 10.2192 168.189 10.7325L164.757 20.4565H174.239ZM185.327 32.5785H180.201C179.629 32.5785 179.16 32.4465 178.793 32.1825C178.441 31.9038 178.177 31.5518 178.001 31.1265L175.845 25.0325H163.129L160.973 31.1265C160.826 31.4932 160.57 31.8305 160.203 32.1385C159.836 32.4318 159.374 32.5785 158.817 32.5785H153.647L166.121 0.656489H172.875L185.327 32.5785ZM215.628 0.656489V32.5785H212.218C211.704 32.5785 211.272 32.4978 210.92 32.3365C210.568 32.1605 210.223 31.8672 209.886 31.4565L193.98 11.2165C194.024 11.7298 194.053 12.2358 194.068 12.7345C194.097 13.2332 194.112 13.6952 194.112 14.1205V32.5785H188.282V0.656489H191.758C192.036 0.656489 192.271 0.671156 192.462 0.700489C192.667 0.715156 192.85 0.76649 193.012 0.854491C193.173 0.927824 193.327 1.03049 193.474 1.16249C193.62 1.29449 193.782 1.47049 193.958 1.69049L209.974 22.0185C209.915 21.4612 209.871 20.9258 209.842 20.4125C209.812 19.8845 209.797 19.3858 209.797 18.9165V0.656489H215.628ZM250.935 16.6065C250.935 18.9385 250.539 21.0872 249.747 23.0525C248.969 25.0032 247.862 26.6825 246.425 28.0905C245.002 29.4985 243.286 30.5985 241.277 31.3905C239.267 32.1825 237.038 32.5785 234.589 32.5785H222.313V0.656489H234.589C237.038 0.656489 239.267 1.05249 241.277 1.84449C243.286 2.63649 245.002 3.74382 246.425 5.16649C247.862 6.57449 248.969 8.25382 249.747 10.2045C250.539 12.1552 250.935 14.2892 250.935 16.6065ZM244.159 16.6065C244.159 14.9345 243.939 13.4312 243.499 12.0965C243.059 10.7618 242.428 9.63249 241.607 8.70849C240.785 7.78449 239.781 7.07316 238.593 6.57449C237.419 6.07582 236.085 5.82649 234.589 5.82649H228.957V27.4085H234.589C236.085 27.4085 237.419 27.1665 238.593 26.6825C239.781 26.1838 240.785 25.4725 241.607 24.5485C242.428 23.6098 243.059 22.4732 243.499 21.1385C243.939 19.8038 244.159 18.2932 244.159 16.6065ZM18.48 52.9025C18.48 54.1745 18.268 55.3545 17.844 56.4425C17.428 57.5225 16.836 58.4585 16.068 59.2505C15.3 60.0425 14.376 60.6625 13.296 61.1105C12.216 61.5505 11.016 61.7705 9.696 61.7705C8.384 61.7705 7.188 61.5505 6.108 61.1105C5.028 60.6625 4.1 60.0425 3.324 59.2505C2.556 58.4585 1.96 57.5225 1.536 56.4425C1.112 55.3545 0.9 54.1745 0.9 52.9025C0.9 51.6305 1.112 50.4545 1.536 49.3745C1.96 48.2865 2.556 47.3465 3.324 46.5545C4.1 45.7625 5.028 45.1465 6.108 44.7065C7.188 44.2585 8.384 44.0345 9.696 44.0345C10.576 44.0345 11.404 44.1385 12.18 44.3465C12.956 44.5465 13.668 44.8345 14.316 45.2105C14.964 45.5785 15.544 46.0305 16.056 46.5665C16.576 47.0945 17.016 47.6865 17.376 48.3425C17.736 48.9985 18.008 49.7105 18.192 50.4785C18.384 51.2465 18.48 52.0545 18.48 52.9025ZM15.18 52.9025C15.18 51.9505 15.052 51.0985 14.796 50.3465C14.54 49.5865 14.176 48.9425 13.704 48.4145C13.232 47.8865 12.656 47.4825 11.976 47.2025C11.304 46.9225 10.544 46.7825 9.696 46.7825C8.848 46.7825 8.084 46.9225 7.404 47.2025C6.732 47.4825 6.156 47.8865 5.676 48.4145C5.204 48.9425 4.84 49.5865 4.584 50.3465C4.328 51.0985 4.2 51.9505 4.2 52.9025C4.2 53.8545 4.328 54.7105 4.584 55.4705C4.84 56.2225 5.204 56.8625 5.676 57.3905C6.156 57.9105 6.732 58.3105 7.404 58.5905C8.084 58.8705 8.848 59.0105 9.696 59.0105C10.544 59.0105 11.304 58.8705 11.976 58.5905C12.656 58.3105 13.232 57.9105 13.704 57.3905C14.176 56.8625 14.54 56.2225 14.796 55.4705C15.052 54.7105 15.18 53.8545 15.18 52.9025ZM24.5548 46.7945V51.9305H31.0588V54.5105H24.5548V61.5785H21.3148V44.2265H32.2588V46.7945H24.5548ZM50.3226 58.9145V61.5785H40.1586V44.2265H43.3866V58.9145H50.3226ZM59.1426 58.9745C59.7666 58.9745 60.3226 58.8705 60.8106 58.6625C61.3066 58.4545 61.7226 58.1625 62.0586 57.7865C62.3946 57.4105 62.6506 56.9545 62.8266 56.4185C63.0106 55.8825 63.1026 55.2825 63.1026 54.6185V44.2265H66.3306V54.6185C66.3306 55.6505 66.1626 56.6065 65.8266 57.4865C65.4986 58.3585 65.0226 59.1145 64.3986 59.7545C63.7826 60.3865 63.0306 60.8825 62.1426 61.2425C61.2546 61.5945 60.2546 61.7705 59.1426 61.7705C58.0226 61.7705 57.0186 61.5945 56.1306 61.2425C55.2426 60.8825 54.4866 60.3865 53.8626 59.7545C53.2466 59.1145 52.7706 58.3585 52.4346 57.4865C52.1066 56.6065 51.9426 55.6505 51.9426 54.6185V44.2265H55.1706V54.6065C55.1706 55.2705 55.2586 55.8705 55.4346 56.4065C55.6186 56.9425 55.8786 57.4025 56.2146 57.7865C56.5586 58.1625 56.9746 58.4545 57.4626 58.6625C57.9586 58.8705 58.5186 58.9745 59.1426 58.9745ZM84.0711 61.5785H80.8551C80.6311 61.5785 80.4511 61.5225 80.3151 61.4105C80.1871 61.2985 80.0831 61.1705 80.0031 61.0265L75.9831 54.3665C75.9191 54.5665 75.8431 54.7385 75.7551 54.8825L71.9031 61.0265C71.8071 61.1625 71.6951 61.2905 71.5671 61.4105C71.4471 61.5225 71.2871 61.5785 71.0871 61.5785H68.0751L73.8351 52.6505L68.3031 44.2265H71.5191C71.7431 44.2265 71.9031 44.2585 71.9991 44.3225C72.1031 44.3785 72.1991 44.4745 72.2871 44.6105L76.2351 50.9705C76.3151 50.7705 76.4111 50.5705 76.5231 50.3705L80.1471 44.6705C80.2351 44.5185 80.3311 44.4065 80.4351 44.3345C80.5391 44.2625 80.6711 44.2265 80.8311 44.2265H83.9151L78.3351 52.5185L84.0711 61.5785ZM89.3126 46.7945V51.6065H95.3846V54.0905H89.3126V58.9985H97.0166V61.5785H86.0726V44.2265H97.0166V46.7945H89.3126ZM105.121 52.4825C105.729 52.4825 106.257 52.4065 106.705 52.2545C107.161 52.1025 107.533 51.8945 107.821 51.6305C108.117 51.3585 108.337 51.0385 108.481 50.6705C108.625 50.3025 108.697 49.8985 108.697 49.4585C108.697 48.5785 108.405 47.9025 107.821 47.4305C107.245 46.9585 106.361 46.7225 105.169 46.7225H103.105V52.4825H105.121ZM113.425 61.5785H110.509C109.957 61.5785 109.557 61.3625 109.309 60.9305L105.661 55.3745C105.525 55.1665 105.373 55.0185 105.205 54.9305C105.045 54.8425 104.805 54.7985 104.485 54.7985H103.105V61.5785H99.8773V44.2265H105.169C106.345 44.2265 107.353 44.3505 108.193 44.5985C109.041 44.8385 109.733 45.1785 110.269 45.6185C110.813 46.0585 111.213 46.5865 111.469 47.2025C111.725 47.8105 111.853 48.4825 111.853 49.2185C111.853 49.8025 111.765 50.3545 111.589 50.8745C111.421 51.3945 111.173 51.8665 110.845 52.2905C110.525 52.7145 110.125 53.0865 109.645 53.4065C109.173 53.7265 108.633 53.9785 108.025 54.1625C108.233 54.2825 108.425 54.4265 108.601 54.5945C108.777 54.7545 108.937 54.9465 109.081 55.1705L113.425 61.5785ZM118.539 61.5785H115.299V44.2265H118.539V61.5785ZM138.972 52.9025C138.972 54.1745 138.76 55.3545 138.336 56.4425C137.92 57.5225 137.328 58.4585 136.56 59.2505C135.792 60.0425 134.868 60.6625 133.788 61.1105C132.708 61.5505 131.508 61.7705 130.188 61.7705C128.876 61.7705 127.68 61.5505 126.6 61.1105C125.52 60.6625 124.592 60.0425 123.816 59.2505C123.048 58.4585 122.452 57.5225 122.028 56.4425C121.604 55.3545 121.392 54.1745 121.392 52.9025C121.392 51.6305 121.604 50.4545 122.028 49.3745C122.452 48.2865 123.048 47.3465 123.816 46.5545C124.592 45.7625 125.52 45.1465 126.6 44.7065C127.68 44.2585 128.876 44.0345 130.188 44.0345C131.068 44.0345 131.896 44.1385 132.672 44.3465C133.448 44.5465 134.16 44.8345 134.808 45.2105C135.456 45.5785 136.036 46.0305 136.548 46.5665C137.068 47.0945 137.508 47.6865 137.868 48.3425C138.228 48.9985 138.5 49.7105 138.684 50.4785C138.876 51.2465 138.972 52.0545 138.972 52.9025ZM135.672 52.9025C135.672 51.9505 135.544 51.0985 135.288 50.3465C135.032 49.5865 134.668 48.9425 134.196 48.4145C133.724 47.8865 133.148 47.4825 132.468 47.2025C131.796 46.9225 131.036 46.7825 130.188 46.7825C129.34 46.7825 128.576 46.9225 127.896 47.2025C127.224 47.4825 126.648 47.8865 126.168 48.4145C125.696 48.9425 125.332 49.5865 125.076 50.3465C124.82 51.0985 124.692 51.9505 124.692 52.9025C124.692 53.8545 124.82 54.7105 125.076 55.4705C125.332 56.2225 125.696 56.8625 126.168 57.3905C126.648 57.9105 127.224 58.3105 127.896 58.5905C128.576 58.8705 129.34 59.0105 130.188 59.0105C131.036 59.0105 131.796 58.8705 132.468 58.5905C133.148 58.3105 133.724 57.9105 134.196 57.3905C134.668 56.8625 135.032 56.2225 135.288 55.4705C135.544 54.7105 135.672 53.8545 135.672 52.9025ZM148.791 58.9745C149.415 58.9745 149.971 58.8705 150.459 58.6625C150.955 58.4545 151.371 58.1625 151.707 57.7865C152.043 57.4105 152.299 56.9545 152.475 56.4185C152.659 55.8825 152.751 55.2825 152.751 54.6185V44.2265H155.979V54.6185C155.979 55.6505 155.811 56.6065 155.475 57.4865C155.147 58.3585 154.671 59.1145 154.047 59.7545C153.431 60.3865 152.679 60.8825 151.791 61.2425C150.903 61.5945 149.903 61.7705 148.791 61.7705C147.671 61.7705 146.667 61.5945 145.779 61.2425C144.891 60.8825 144.135 60.3865 143.511 59.7545C142.895 59.1145 142.419 58.3585 142.083 57.4865C141.755 56.6065 141.591 55.6505 141.591 54.6185V44.2265H144.819V54.6065C144.819 55.2705 144.907 55.8705 145.083 56.4065C145.267 56.9425 145.527 57.4025 145.863 57.7865C146.207 58.1625 146.623 58.4545 147.111 58.6625C147.607 58.8705 148.167 58.9745 148.791 58.9745ZM168.86 47.3825C168.764 47.5505 168.66 47.6745 168.548 47.7545C168.444 47.8265 168.312 47.8625 168.152 47.8625C167.984 47.8625 167.8 47.8025 167.6 47.6825C167.408 47.5545 167.176 47.4145 166.904 47.2625C166.632 47.1105 166.312 46.9745 165.944 46.8545C165.584 46.7265 165.156 46.6625 164.66 46.6625C164.212 46.6625 163.82 46.7185 163.484 46.8305C163.148 46.9345 162.864 47.0825 162.632 47.2745C162.408 47.4665 162.24 47.6985 162.128 47.9705C162.016 48.2345 161.96 48.5265 161.96 48.8465C161.96 49.2545 162.072 49.5945 162.296 49.8665C162.528 50.1385 162.832 50.3705 163.208 50.5625C163.584 50.7545 164.012 50.9265 164.492 51.0785C164.972 51.2305 165.464 51.3945 165.968 51.5705C166.472 51.7385 166.964 51.9385 167.444 52.1705C167.924 52.3945 168.352 52.6825 168.728 53.0345C169.104 53.3785 169.404 53.8025 169.628 54.3065C169.86 54.8105 169.976 55.4225 169.976 56.1425C169.976 56.9265 169.84 57.6625 169.568 58.3505C169.304 59.0305 168.912 59.6265 168.392 60.1385C167.88 60.6425 167.252 61.0425 166.508 61.3385C165.764 61.6265 164.912 61.7705 163.952 61.7705C163.4 61.7705 162.856 61.7145 162.32 61.6025C161.784 61.4985 161.268 61.3465 160.771 61.1465C160.284 60.9465 159.824 60.7065 159.392 60.4265C158.96 60.1465 158.576 59.8345 158.24 59.4905L159.188 57.9425C159.268 57.8305 159.372 57.7385 159.5 57.6665C159.628 57.5865 159.764 57.5465 159.908 57.5465C160.108 57.5465 160.324 57.6305 160.556 57.7985C160.788 57.9585 161.064 58.1385 161.384 58.3385C161.704 58.5385 162.076 58.7225 162.5 58.8905C162.932 59.0505 163.448 59.1305 164.048 59.1305C164.968 59.1305 165.68 58.9145 166.184 58.4825C166.688 58.0425 166.94 57.4145 166.94 56.5985C166.94 56.1425 166.824 55.7705 166.592 55.4825C166.368 55.1945 166.068 54.9545 165.692 54.7625C165.316 54.5625 164.888 54.3945 164.408 54.2585C163.928 54.1225 163.44 53.9745 162.944 53.8145C162.448 53.6545 161.96 53.4625 161.48 53.2385C161 53.0145 160.572 52.7225 160.196 52.3625C159.82 52.0025 159.516 51.5545 159.284 51.0185C159.06 50.4745 158.948 49.8065 158.948 49.0145C158.948 48.3825 159.072 47.7665 159.32 47.1665C159.576 46.5665 159.944 46.0345 160.424 45.5705C160.904 45.1065 161.496 44.7345 162.2 44.4545C162.904 44.1745 163.712 44.0345 164.624 44.0345C165.648 44.0345 166.592 44.1945 167.456 44.5145C168.32 44.8345 169.056 45.2825 169.664 45.8585L168.86 47.3825Z" fill="#222222"/>
<path d="M181.867 46.7945V51.9305H188.371V54.5105H181.867V61.5785H178.627V44.2265H189.571V46.7945H181.867ZM199.959 55.0265L197.847 49.2545C197.743 48.9985 197.635 48.6945 197.523 48.3425C197.411 47.9905 197.299 47.6105 197.187 47.2025C197.083 47.6105 196.975 47.9945 196.863 48.3545C196.751 48.7065 196.643 49.0145 196.539 49.2785L194.439 55.0265H199.959ZM205.659 61.5785H203.163C202.883 61.5785 202.655 61.5105 202.479 61.3745C202.303 61.2305 202.171 61.0545 202.083 60.8465L200.787 57.3065H193.599L192.303 60.8465C192.239 61.0305 192.115 61.1985 191.931 61.3505C191.747 61.5025 191.519 61.5785 191.247 61.5785H188.727L195.555 44.2265H198.843L205.659 61.5785ZM216.695 47.3825C216.599 47.5505 216.495 47.6745 216.383 47.7545C216.279 47.8265 216.147 47.8625 215.987 47.8625C215.819 47.8625 215.635 47.8025 215.435 47.6825C215.243 47.5545 215.011 47.4145 214.739 47.2625C214.467 47.1105 214.147 46.9745 213.779 46.8545C213.419 46.7265 212.991 46.6625 212.495 46.6625C212.047 46.6625 211.655 46.7185 211.319 46.8305C210.983 46.9345 210.699 47.0825 210.467 47.2745C210.243 47.4665 210.075 47.6985 209.963 47.9705C209.851 48.2345 209.795 48.5265 209.795 48.8465C209.795 49.2545 209.907 49.5945 210.131 49.8665C210.363 50.1385 210.667 50.3705 211.043 50.5625C211.419 50.7545 211.847 50.9265 212.327 51.0785C212.807 51.2305 213.299 51.3945 213.803 51.5705C214.307 51.7385 214.799 51.9385 215.279 52.1705C215.759 52.3945 216.187 52.6825 216.563 53.0345C216.939 53.3785 217.239 53.8025 217.463 54.3065C217.695 54.8105 217.811 55.4225 217.811 56.1425C217.811 56.9265 217.675 57.6625 217.403 58.3505C217.139 59.0305 216.747 59.6265 216.227 60.1385C215.715 60.6425 215.087 61.0425 214.343 61.3385C213.599 61.6265 212.747 61.7705 211.787 61.7705C211.235 61.7705 210.691 61.7145 210.155 61.6025C209.619 61.4985 209.103 61.3465 208.607 61.1465C208.119 60.9465 207.659 60.7065 207.227 60.4265C206.795 60.1465 206.411 59.8345 206.075 59.4905L207.023 57.9425C207.103 57.8305 207.207 57.7385 207.335 57.6665C207.463 57.5865 207.599 57.5465 207.743 57.5465C207.943 57.5465 208.159 57.6305 208.391 57.7985C208.623 57.9585 208.899 58.1385 209.219 58.3385C209.539 58.5385 209.911 58.7225 210.335 58.8905C210.767 59.0505 211.283 59.1305 211.883 59.1305C212.803 59.1305 213.515 58.9145 214.019 58.4825C214.523 58.0425 214.775 57.4145 214.775 56.5985C214.775 56.1425 214.659 55.7705 214.427 55.4825C214.203 55.1945 213.903 54.9545 213.527 54.7625C213.151 54.5625 212.723 54.3945 212.243 54.2585C211.763 54.1225 211.275 53.9745 210.779 53.8145C210.283 53.6545 209.795 53.4625 209.315 53.2385C208.835 53.0145 208.407 52.7225 208.031 52.3625C207.655 52.0025 207.351 51.5545 207.119 51.0185C206.895 50.4745 206.783 49.8065 206.783 49.0145C206.783 48.3825 206.907 47.7665 207.155 47.1665C207.411 46.5665 207.779 46.0345 208.259 45.5705C208.739 45.1065 209.331 44.7345 210.035 44.4545C210.739 44.1745 211.547 44.0345 212.459 44.0345C213.483 44.0345 214.427 44.1945 215.291 44.5145C216.155 44.8345 216.891 45.2825 217.499 45.8585L216.695 47.3825ZM235.255 44.2265V61.5785H232.015V53.9945H223.867V61.5785H220.627V44.2265H223.867V51.6905H232.015V44.2265H235.255ZM242.36 61.5785H239.12V44.2265H242.36V61.5785ZM262.793 52.9025C262.793 54.1745 262.581 55.3545 262.157 56.4425C261.741 57.5225 261.149 58.4585 260.381 59.2505C259.613 60.0425 258.689 60.6625 257.609 61.1105C256.529 61.5505 255.329 61.7705 254.009 61.7705C252.697 61.7705 251.501 61.5505 250.421 61.1105C249.341 60.6625 248.413 60.0425 247.637 59.2505C246.869 58.4585 246.273 57.5225 245.849 56.4425C245.425 55.3545 245.213 54.1745 245.213 52.9025C245.213 51.6305 245.425 50.4545 245.849 49.3745C246.273 48.2865 246.869 47.3465 247.637 46.5545C248.413 45.7625 249.341 45.1465 250.421 44.7065C251.501 44.2585 252.697 44.0345 254.009 44.0345C254.889 44.0345 255.717 44.1385 256.493 44.3465C257.269 44.5465 257.981 44.8345 258.629 45.2105C259.277 45.5785 259.857 46.0305 260.369 46.5665C260.889 47.0945 261.329 47.6865 261.689 48.3425C262.049 48.9985 262.321 49.7105 262.505 50.4785C262.697 51.2465 262.793 52.0545 262.793 52.9025ZM259.493 52.9025C259.493 51.9505 259.365 51.0985 259.109 50.3465C258.853 49.5865 258.489 48.9425 258.017 48.4145C257.545 47.8865 256.969 47.4825 256.289 47.2025C255.617 46.9225 254.857 46.7825 254.009 46.7825C253.161 46.7825 252.397 46.9225 251.717 47.2025C251.045 47.4825 250.469 47.8865 249.989 48.4145C249.517 48.9425 249.153 49.5865 248.897 50.3465C248.641 51.0985 248.513 51.9505 248.513 52.9025C248.513 53.8545 248.641 54.7105 248.897 55.4705C249.153 56.2225 249.517 56.8625 249.989 57.3905C250.469 57.9105 251.045 58.3105 251.717 58.5905C252.397 58.8705 253.161 59.0105 254.009 59.0105C254.857 59.0105 255.617 58.8705 256.289 58.5905C256.969 58.3105 257.545 57.9105 258.017 57.3905C258.489 56.8625 258.853 56.2225 259.109 55.4705C259.365 54.7105 259.493 53.8545 259.493 52.9025ZM280.255 44.2265V61.5785H278.599C278.343 61.5785 278.127 61.5385 277.951 61.4585C277.783 61.3705 277.619 61.2265 277.459 61.0265L268.399 49.4585C268.447 49.9865 268.471 50.4745 268.471 50.9225V61.5785H265.627V44.2265H267.319C267.455 44.2265 267.571 44.2345 267.667 44.2505C267.771 44.2585 267.859 44.2825 267.931 44.3225C268.011 44.3545 268.087 44.4065 268.159 44.4785C268.231 44.5425 268.311 44.6305 268.399 44.7425L277.495 56.3585C277.471 56.0785 277.451 55.8025 277.435 55.5305C277.419 55.2585 277.411 55.0065 277.411 54.7745V44.2265H280.255Z" fill="#F16D7F"/>
</svg>
